# xmcd
#
# Track frame offsets:
# 150
# 18387
# 30873
# 46982
# 59883
# 76768
# 92404
# 104774
# 120393
# 135181
# 148490
# 162586
# 178906
# 193575
# 206113
# 226292
# 242037
# 259089
# 276070
# 292677
#
# Disc length: 4157 seconds
#
#
# Revision: 0
# Processed by: cddbd v1.5.2PL0 Copyright (c) Steve Scherf et al.
# Submitted via: FreeRIP 2.945 
#
DISCID=1b103b14
DTITLE=Various Artist - Where Country Is
DYEAR=2005
DGENRE=Country
TTITLE0=True Blue
TTITLE1=Days Of Old Khancoban
TTITLE2=A Little Further North
TTITLE3=(Boys) You've Gotta Learn To Dance
TTITLE4=I Never Work On A Sunday
TTITLE5=Age Of Grace
TTITLE6=Boys From The Bush
TTITLE7=Two Stars Fell
TTITLE8=Dream Out Loud
TTITLE9=Boys In Boots
TTITLE10=Homefires
TTITLE11=Rest In Pieces
TTITLE12=Last Man Standing
TTITLE13=This Flower
TTITLE14=Paddy William
TTITLE15=Rollercoaster
TTITLE16=The Shake Of A Hand
TTITLE17=Never Never
TTITLE18=Real People
TTITLE19=Rush
EXTD=Australias Best 1986-2005
EXTT0=
EXTT1=
EXTT2=
EXTT3=
EXTT4=
EXTT5=
EXTT6=
EXTT7=
EXTT8=
EXTT9=
EXTT10=
EXTT11=
EXTT12=
EXTT13=
EXTT14=
EXTT15=
EXTT16=
EXTT17=
EXTT18=
EXTT19=
PLAYORDER=
